RNB Movie - Hight Definition

Format                           : AVI
Format/Info                      : Audio Video Interleave
File size                        : 55.0 MiB
Duration                         : 3mn 17s
Overall bit rate                 : 2 340 Kbps
Movie name                       : Iyaz - Replay
Director                         : (c) 2009 mixxing by_Dj.Tong.
Writing application              : VirtualDubMod 1.5.10.2 (build 2540/release)
Writing library                  : VirtualDubMod build 2540/release
Copyright                        : (c) 2009 mixxing by_Dj.Tong.
Comment                          : (c) 2009 mixxing by_Dj.Tong.

Video
ID                               : 0
Format                           : AVC
Format/Info                      : Advanced Video Codec
Format profile                   : High@L3.1
Format settings, CABAC           : Yes
Format settings, ReFrames        : 3 frames
Codec ID                         : AVC1
Duration                         : 3mn 17s
Bit rate                         : 2 010 Kbps
Width                            : 1 280 pixels
Height                           : 720 pixels
Display aspect ratio             : 16:9
Frame rate                       : 23.976 fps
Resolution                       : 8 bits
Colorimetry                      : 4:2:0
Scan type                        : Progressive
Bits/(Pixel*Frame)               : 0.091
Stream size                      : 47.3 MiB (86%)

Audio
ID                               : 1
Format                           : MPEG Audio
Format version                   : Version 1
Format profile                   : Layer 3
Mode                             : Joint stereo
Codec ID                         : 55
Codec ID/Hint                    : MP3
Duration                         : 3mn 17s
Bit rate mode                    : Constant
Bit rate                         : 320 Kbps
Channel(s)                       : 2 channels
Sampling rate                    : 48.0 KHz
Stream size                      : 7.53 MiB (14%)
Alignment                        : Aligned on interleaves
Interleave, duration             : 42 ms (1.00 video frame)
Interleave, preload duration     : 504 ms
Title                            : (c) 2009 mixxing by_Dj.Tong.
Writing library                  : LAME3.98r
Encoding settings                : -m j -V 4 -q 3 -lowpass 20.5

